<?xml version="1.0" standalone="no"?>
<!DOCTYPE svg PUBLIC "-//W3C//DTD SVG 20010904//EN"
 "http://www.w3.org/TR/2001/REC-SVG-20010904/DTD/svg10.dtd">
<svg version="1.0" xmlns="http://www.w3.org/2000/svg"
 width="1024.000000pt" height="1024.000000pt" viewBox="0 0 1024.000000 1024.000000"
 preserveAspectRatio="xMidYMid meet">
<metadata>
Created by potrace 1.14, written by Peter Selinger 2001-2017
</metadata>
<g transform="translate(0.000000,1024.000000) scale(0.100000,-0.100000)"
fill="#000000" stroke="none">
<path d="M4888 10235 c-1 -1 -43 -6 -93 -9 -49 -4 -99 -9 -110 -11 -11 -2 -42
-7 -70 -10 -58 -6 -157 -21 -200 -30 -16 -4 -39 -8 -50 -10 -62 -11 -195 -42
-225 -53 -8 -3 -26 -7 -40 -9 -42 -7 -365 -116 -368 -125 -2 -4 -11 -8 -20 -8
-9 -1 -35 -9 -57 -20 -22 -11 -44 -19 -48 -20 -14 0 -320 -152 -372 -184 -27
-17 -67 -40 -87 -51 -21 -11 -38 -23 -38 -27 0 -5 -3 -7 -7 -6 -18 5 -252
-160 -413 -291 -125 -101 -162 -134 -294 -267 -109 -110 -120 -121 -214 -234
-34 -41 -68 -82 -75 -89 -6 -8 -35 -47 -64 -85 -29 -39 -56 -76 -61 -82 -5 -5
-22 -30 -38 -55 -16 -24 -32 -46 -37 -47 -4 -2 -5 -8 -1 -13 3 -5 -2 -12 -10
-15 -9 -3 -16 -10 -16 -14 0 -5 -24 -48 -53 -97 -30 -48 -64 -108 -78 -133
-13 -25 -28 -48 -32 -51 -5 -3 -8 -9 -8 -13 1 -3 -20 -50 -46 -104 -26 -53
-48 -99 -49 -102 0 -3 -10 -27 -22 -53 -12 -27 -22 -51 -22 -54 0 -3 -7 -19
-15 -36 -16 -35 -74 -193 -80 -217 -2 -8 -8 -27 -14 -43 -6 -15 -13 -38 -16
-50 -2 -12 -15 -60 -29 -107 -14 -47 -27 -96 -29 -110 -3 -14 -10 -45 -17 -70
-7 -25 -14 -56 -16 -70 -2 -14 -6 -36 -9 -50 -3 -14 -8 -45 -11 -70 -3 -25 -7
-47 -9 -50 -4 -7 -18 -130 -19 -162 0 -16 -3 -28 -6 -28 -3 0 -7 -39 -10 -88
-7 -115 -6 -5892 1 -5913 14 -45 72 -110 122 -136 51 -27 152 -25 210 4 26 13
47 27 47 31 0 4 13 16 30 25 16 10 35 23 42 30 7 7 49 41 93 77 44 35 85 68
90 72 6 5 87 69 180 143 94 75 177 141 186 149 15 13 73 44 119 64 14 7 39 14
55 16 17 2 32 5 35 6 3 1 10 1 15 0 6 -1 28 -3 50 -4 53 -4 135 -26 135 -37 0
-5 6 -9 13 -9 11 0 29 -13 84 -61 26 -23 53 -58 53 -68 0 -5 4 -11 8 -13 5 -1
28 -30 53 -63 24 -33 47 -61 52 -63 4 -2 7 -10 7 -17 0 -7 4 -15 8 -17 11 -4
232 -298 232 -308 0 -5 4 -10 8 -12 5 -2 91 -113 191 -248 101 -135 200 -260
220 -278 83 -75 207 -100 314 -63 32 11 64 26 71 33 7 7 23 20 36 28 12 8 45
47 73 85 28 39 56 75 62 81 5 6 17 21 25 33 8 12 122 164 253 338 130 173 237
318 237 322 0 4 9 13 20 21 11 8 20 18 20 22 0 10 101 141 112 146 5 2 8 9 8
15 0 29 97 100 166 120 51 15 152 16 189 2 54 -20 83 -37 116 -67 20 -18 173
-215 340 -438 166 -223 306 -406 311 -408 4 -2 8 -10 8 -17 0 -7 3 -15 8 -17
4 -1 27 -30 51 -63 25 -33 48 -61 53 -63 4 -2 8 -8 8 -13 0 -22 105 -129 126
-129 8 0 14 -4 14 -9 0 -5 10 -12 23 -16 12 -4 29 -9 37 -12 39 -12 153 -11
188 3 105 41 108 44 342 358 216 289 303 405 322 427 7 9 18 23 23 31 31 49
207 279 245 320 73 81 168 126 262 124 25 -1 44 2 42 5 -2 4 24 -1 59 -11 60
-16 116 -43 154 -74 10 -8 56 -45 103 -82 47 -38 87 -71 90 -74 3 -3 25 -21
50 -40 25 -19 47 -37 50 -40 3 -3 30 -24 60 -47 30 -23 64 -50 75 -60 12 -10
41 -34 65 -53 47 -36 68 -53 103 -83 45 -39 104 -67 150 -71 25 -2 51 -7 57
-11 5 -3 10 -2 10 3 0 5 6 9 13 9 25 0 93 38 120 68 16 16 37 48 48 70 18 39
19 103 16 2970 -2 1612 -6 2957 -10 2990 -4 33 -9 76 -12 95 -3 19 -7 53 -10
75 -10 92 -18 140 -41 245 -3 14 -7 36 -10 50 -7 38 -45 193 -51 210 -3 8 -8
23 -10 33 -1 10 -13 48 -25 85 -12 37 -23 69 -23 72 -3 16 -40 116 -51 139 -8
14 -14 31 -14 36 0 17 -67 172 -132 304 -50 102 -127 240 -191 345 -32 52
-142 212 -154 224 -7 7 -13 16 -13 20 0 4 -13 21 -28 39 -15 17 -36 44 -47 59
-11 15 -29 38 -40 51 -11 12 -33 39 -50 60 -74 92 -247 268 -365 373 -40 36
-78 70 -84 75 -14 13 -138 111 -191 152 -22 17 -92 65 -155 106 -63 42 -120
81 -127 87 -7 5 -15 10 -19 10 -3 0 -39 19 -78 43 -75 45 -398 207 -414 207
-5 0 -31 9 -57 21 -78 35 -267 102 -277 99 -2 0 -30 9 -63 20 -32 11 -68 22
-80 24 -11 3 -67 17 -125 31 -58 15 -118 29 -135 31 -16 3 -50 9 -75 14 -25 5
-67 12 -95 16 -27 4 -57 8 -65 9 -8 2 -46 6 -85 10 -38 4 -83 9 -100 12 -33 5
-561 13 -567 8z m-913 -3209 c17 -2 30 -5 30 -6 0 -1 8 -3 17 -5 49 -9 189
-89 243 -138 48 -44 145 -165 145 -181 0 -2 8 -21 17 -42 9 -22 18 -42 19 -46
1 -5 2 -9 4 -10 1 -2 3 -10 5 -18 2 -8 6 -28 10 -45 23 -98 8 -284 -30 -370
-10 -22 -19 -43 -19 -46 -4 -23 -96 -145 -142 -188 -50 -47 -150 -112 -171
-113 -4 0 -19 -6 -33 -14 -47 -26 -146 -42 -247 -39 -54 2 -105 5 -113 8 -8 2
-35 9 -60 16 -25 7 -46 12 -46 10 -1 -2 -11 5 -23 15 -12 11 -21 16 -21 13 0
-17 -113 65 -176 128 -125 125 -184 277 -179 460 2 55 5 107 7 115 3 8 10 35
17 60 20 70 77 172 130 231 47 53 164 146 174 138 3 -2 13 3 23 12 17 14 126
52 179 62 23 4 196 0 240 -7z m2555 1 c8 -2 33 -9 55 -15 22 -6 43 -10 46 -9
4 1 16 -7 28 -17 12 -11 21 -16 21 -13 0 17 113 -65 176 -128 51 -51 82 -93
110 -149 21 -43 39 -83 41 -90 1 -6 9 -36 16 -67 13 -51 16 -228 5 -269 -3 -8
-10 -35 -17 -60 -20 -70 -77 -172 -130 -231 -47 -53 -168 -149 -175 -139 -2 3
-12 -2 -22 -11 -39 -33 -164 -63 -264 -63 -78 0 -185 8 -185 14 0 1 -8 3 -17
5 -32 6 -188 85 -188 95 0 6 -6 10 -13 10 -23 0 -187 187 -187 213 0 3 -8 22
-17 43 -9 22 -18 42 -19 47 -1 4 -2 8 -4 10 -1 1 -3 9 -5 17 -2 8 -6 29 -10
45 -23 98 -8 284 30 370 10 22 19 43 19 46 4 23 96 145 142 188 49 46 158 117
166 110 2 -2 17 5 33 14 51 29 144 44 250 41 55 -1 107 -4 115 -7z"/>
</g>
</svg>
